<svg width="434.991259765625px" height="120.8099609375px" xmlns="http://www.w3.org/2000/svg" viewBox="32.504370117187506 14.595019531250003 434.991259765625 120.8099609375" style="background: rgba(0, 0, 0, 0);" preserveAspectRatio="xMidYMid"><defs><filter id="editing-jagged" x="-100%" y="-100%" width="300%" height="300%"><feTurbulence result="turb" baseFrequency="0.1" numOctaves="1" seed="1"></feTurbulence><feDisplacementMap in="SourceGraphic" in2="turb" scale="10"></feDisplacementMap></filter></defs><g filter="url(#editing-jagged)"><g transform="translate(96.45655679702759, 98.71000099182129)"><path d="M6.21-31.17L6.21-31.17L6.21-31.17Q4.03-32.83 4.03-36.38L4.03-36.38L4.03-36.38Q4.03-39.94 6.37-41.79L6.37-41.79L6.37-41.79Q8.70-43.65 12.74-43.65L12.74-43.65L12.74-43.65Q15.30-43.65 21.38-42.75L21.38-42.75L25.73-42.11L25.73-42.11Q27.90-41.86 30.18-41.86L30.18-41.86L30.18-41.86Q32.45-41.86 33.98-42.82L33.98-42.82L33.98-42.82Q36.29-40.77 36.29-37.82L36.29-37.82L36.29-37.82Q36.29-34.88 33.66-32.77L33.66-32.77L33.66-32.77Q30.98-30.53 27.52-30.53L27.52-30.53L27.52-30.53Q25.86-30.53 23.17-30.98L23.17-30.98L23.17-30.98Q20.03-21.12 20.03-14.27L20.03-14.27L20.03-14.27Q20.03-7.42 23.49-3.84L23.49-3.84L23.49-3.84Q21.89-0.96 19.52 0.16L19.52 0.16L19.52 0.16Q17.15 1.28 13.60 1.28L13.60 1.28L13.60 1.28Q10.05 1.28 7.84-0.67L7.84-0.67L7.84-0.67Q5.63-2.62 5.63-6.66L5.63-6.66L5.63-6.66Q5.63-11.33 8.19-19.01L8.19-19.01L8.19-19.01Q10.75-26.62 14.59-32.45L14.59-32.45L14.59-32.45Q12.74-32.64 10.82-32.64L10.82-32.64L10.82-32.64Q6.85-32.64 6.21-31.17ZM45.25 1.28L45.25 1.28L45.25 1.28Q31.17 1.28 31.17-11.97L31.17-11.97L31.17-11.97Q31.17-21.38 36.35-27.46L36.35-27.46L36.35-27.46Q41.86-33.92 51.39-33.92L51.39-33.92L51.39-33.92Q58.30-33.92 61.82-30.72L61.82-30.72L61.82-30.72Q65.34-27.52 65.34-20.80L65.34-20.80L65.34-20.80Q65.34-10.56 59.84-4.61L59.84-4.61L59.84-4.61Q54.46 1.28 45.25 1.28ZM46.91-26.56L46.91-26.56L46.91-26.56Q46.14-24.83 45.54-22.24L45.54-22.24L45.54-22.24Q44.93-19.65 44.16-15.55L44.16-15.55L44.16-15.55Q43.39-11.46 43.39-6.40L43.39-6.40L43.39-6.40Q43.39-4.74 43.94-3.65L43.94-3.65L43.94-3.65Q44.48-2.56 45.95-2.56L45.95-2.56L45.95-2.56Q47.42-2.56 48.35-3.26L48.35-3.26L48.35-3.26Q49.28-3.97 49.98-5.63L49.98-5.63L49.98-5.63Q51.26-8.58 52.29-14.05L52.29-14.05L52.29-14.05Q53.31-19.52 53.41-21.89L53.41-21.89L53.41-21.89Q53.50-24.26 53.50-26.02L53.50-26.02L53.50-26.02Q53.50-27.78 52.99-28.93L52.99-28.93L52.99-28.93Q52.48-30.08 51.04-30.08L51.04-30.08L51.04-30.08Q49.60-30.08 48.64-29.18L48.64-29.18L48.64-29.18Q47.68-28.29 46.91-26.56ZM89.66-2.69L89.66-2.69L89.66-2.69Q86.59 1.28 78.98 1.28L78.98 1.28L78.98 1.28Q75.01 1.28 72.13-1.12L72.13-1.12L72.13-1.12Q69.25-3.52 69.25-6.98L69.25-6.98L69.25-6.98Q69.25-8.90 69.44-9.86L69.44-9.86L73.73-32.64L86.72-33.92L82.05-9.22L82.05-9.22Q81.79-7.81 81.79-6.98L81.79-6.98L81.79-6.98Q81.79-3.26 84.03-3.26L84.03-3.26L84.03-3.26Q86.53-3.26 88.32-6.66L88.32-6.66L88.32-6.66Q88.90-7.74 89.15-9.15L89.15-9.15L93.70-32.64L106.30-33.92L101.57-8.96L101.57-8.96Q101.38-8 101.38-6.98L101.38-6.98L101.38-6.98Q101.38-5.95 101.95-4.83L101.95-4.83L101.95-4.83Q102.53-3.71 104.38-3.46L104.38-3.46L104.38-3.46Q104-1.92 102.66-0.90L102.66-0.90L102.66-0.90Q99.84 1.28 96.80 1.28L96.80 1.28L96.80 1.28Q93.76 1.28 91.97 0.19L91.97 0.19L91.97 0.19Q90.18-0.90 89.66-2.69ZM140.93-26.62L140.93-26.62L140.93-26.62Q140.93-23.94 138.69-22.27L138.69-22.27L138.69-22.27Q136.45-20.61 132.80-20.61L132.80-20.61L132.80-20.61Q131.26-20.61 130.37-21.06L130.37-21.06L130.37-21.06Q131.07-22.72 131.30-24.80L131.30-24.80L131.30-24.80Q131.52-26.88 131.52-27.46L131.52-27.46L131.52-27.46Q131.52-30.14 129.66-30.14L129.66-30.14L129.66-30.14Q128.38-30.14 126.94-28.54L126.94-28.54L126.94-28.54Q125.50-26.94 124.29-24.45L124.29-24.45L124.29-24.45Q121.60-18.69 121.60-12.86L121.60-12.86L121.60-12.86Q121.60-9.66 122.82-8.22L122.82-8.22L122.82-8.22Q124.03-6.78 126.72-6.78L126.72-6.78L126.72-6.78Q130.43-6.78 133.38-9.86L133.38-9.86L133.38-9.86Q134.21-10.82 134.66-11.90L134.66-11.90L134.66-11.90Q137.09-10.62 137.09-7.10L137.09-7.10L137.09-7.10Q137.09-3.52 133.12-1.15L133.12-1.15L133.12-1.15Q129.02 1.28 122.50 1.28L122.50 1.28L122.50 1.28Q109.50 1.28 109.50-12.48L109.50-12.48L109.50-12.48Q109.50-22.53 115.20-28.29L115.20-28.29L115.20-28.29Q120.70-33.92 130.82-33.92L130.82-33.92L130.82-33.92Q140.93-33.92 140.93-26.62ZM174.85-7.10L174.85-7.10L174.85-7.10Q174.85-4.29 177.73-3.46L177.73-3.46L177.73-3.46Q177.02-1.09 174.27 0.19L174.27 0.19L174.27 0.19Q171.97 1.28 169.44 1.28L169.44 1.28L169.44 1.28Q166.91 1.28 165.60 0.61L165.60 0.61L165.60 0.61Q164.29-0.06 163.58-1.15L163.58-1.15L163.58-1.15Q162.43-2.82 162.43-5.95L162.43-5.95L162.43-5.95Q162.43-7.81 163.46-12.93L163.46-12.93L164.35-17.79L164.35-17.79Q165.44-23.36 165.44-25.41L165.44-25.41L165.44-25.41Q165.44-28.99 163.46-28.99L163.46-28.99L163.46-28.99Q160.96-28.99 159.36-25.34L159.36-25.34L159.36-25.34Q158.72-23.94 158.27-21.82L158.27-21.82L153.92 0L141.06 1.28L150.08-44.80L162.94-46.08L162.43-43.52L162.43-43.52Q160.64-33.66 159.10-30.34L159.10-30.34L159.10-30.34Q162.69-33.92 169.28-33.92L169.28-33.92L169.28-33.92Q176.26-33.92 177.54-29.31L177.54-29.31L177.54-29.31Q177.98-27.84 177.98-26.56L177.98-26.56L177.98-26.56Q177.98-25.28 177.89-24.29L177.89-24.29L177.89-24.29Q177.79-23.30 177.47-21.50L177.47-21.50L176.64-16.90L175.17-9.66L175.17-9.66Q174.85-8.19 174.85-7.10ZM201.54 0L194.18 0L205.76-42.24L219.14-42.24L222.08-18.11L233.98-42.24L245.18-42.24L246.34-10.62L246.34-10.62Q246.59-4.35 249.66-2.43L249.66-2.43L249.66-2.43Q248.96-1.15 246.91 0.06L246.91 0.06L246.91 0.06Q244.86 1.28 242.14 1.28L242.14 1.28L242.14 1.28Q239.42 1.28 237.82 0.51L237.82 0.51L237.82 0.51Q236.22-0.26 235.33-1.54L235.33-1.54L235.33-1.54Q233.73-3.84 233.73-8.26L233.73-8.26L233.73-28.03L221.12 0L213.18 0L208.70-28.74L201.54 0ZM278.34-10.82L278.34-10.82L278.34-10.82Q279.94-9.73 279.94-7.33L279.94-7.33L279.94-7.33Q279.94-4.93 278.72-3.39L278.72-3.39L278.72-3.39Q277.50-1.86 275.52-0.83L275.52-0.83L275.52-0.83Q271.42 1.28 267.01 1.28L267.01 1.28L267.01 1.28Q262.59 1.28 260 0.32L260 0.32L260 0.32Q257.41-0.64 255.68-2.43L255.68-2.43L255.68-2.43Q252.29-5.82 252.29-12.03L252.29-12.03L252.29-12.03Q252.29-21.70 257.54-27.58L257.54-27.58L257.54-27.58Q263.17-33.92 272.96-33.92L272.96-33.92L272.96-33.92Q279.04-33.92 282.05-31.36L282.05-31.36L282.05-31.36Q284.29-29.44 284.29-26.30L284.29-26.30L284.29-26.30Q284.29-15.04 264.83-15.04L264.83-15.04L264.83-15.04Q264.58-13.38 264.58-11.97L264.58-11.97L264.58-11.97Q264.58-9.02 265.89-7.90L265.89-7.90L265.89-7.90Q267.20-6.78 269.63-6.78L269.63-6.78L269.63-6.78Q272.06-6.78 274.66-7.90L274.66-7.90L274.66-7.90Q277.25-9.02 278.34-10.82ZM265.28-17.79L265.28-17.79L265.28-17.79Q269.82-17.79 272.45-20.61L272.45-20.61L272.45-20.61Q275.07-23.30 275.07-27.58L275.07-27.58L275.07-27.58Q275.07-29.06 274.53-29.86L274.53-29.86L274.53-29.86Q273.98-30.66 272.90-30.66L272.90-30.66L272.90-30.66Q271.81-30.66 270.88-30.24L270.88-30.24L270.88-30.24Q269.95-29.82 268.99-28.42L268.99-28.42L268.99-28.42Q266.62-25.22 265.28-17.79ZM284.74-3.78L284.74-3.78L284.74-3.78Q284.74-6.21 286.56-7.52L286.56-7.52L286.56-7.52Q288.38-8.83 291.07-8.83L291.07-8.83L291.07-8.83Q293.76-8.83 295.46-7.52L295.46-7.52L295.46-7.52Q297.15-6.21 297.15-3.78L297.15-3.78L297.15-3.78Q297.15-1.34 295.26 0L295.26 0L295.26 0Q293.38 1.34 290.69 1.34L290.69 1.34L290.69 1.34Q288 1.34 286.37 0L286.37 0L286.37 0Q284.74-1.34 284.74-3.78ZM288.19-15.81L288.19-15.81L288.19-15.81Q288.19-16.26 288.32-16.90L288.32-16.90L293.31-42.62L293.31-42.62Q295.68-43.52 298.50-43.52L298.50-43.52L298.50-43.52Q301.31-43.52 302.78-41.73L302.78-41.73L302.78-41.73Q304.26-39.94 304.26-37.28L304.26-37.28L304.26-37.28Q304.26-34.62 303.23-31.65L303.23-31.65L303.23-31.65Q302.21-28.67 300.96-25.66L300.96-25.66L300.96-25.66Q299.71-22.66 298.66-19.55L298.66-19.55L298.66-19.55Q297.60-16.45 297.54-13.18L297.54-13.18L297.54-13.18Q296.06-11.52 293.50-11.52L293.50-11.52L293.50-11.52Q290.94-11.52 289.57-12.70L289.57-12.70L289.57-12.70Q288.19-13.89 288.19-15.81Z" fill="#444"></path></g></g><style>text {
  font-size: 64px;
  font-family: Arial Black;
  dominant-baseline: central;
  text-anchor: middle;
}</style></svg>